<svg width="10" height="10" viewBox="0 0 10 10" fill="none" xmlns="http://www.w3.org/2000/svg">
<g clip-path="url(#clip0_203_19)">
<path d="M5 2.91666V5.41666M5 8.74999C3.10535 8.74999 2.15802 8.74999 1.61039 8.35211C1.13272 8.00506 0.824738 7.47163 0.76302 6.88443C0.692263 6.21122 1.16593 5.39081 2.11325 3.74999C3.06058 2.10918 3.53424 1.28877 4.15264 1.01344C4.69203 0.77329 5.30798 0.77329 5.84737 1.01344C6.46577 1.28877 6.93943 2.10918 7.88676 3.74999C8.83408 5.39081 9.30775 6.21122 9.23699 6.88443C9.17527 7.47163 8.86729 8.00506 8.38962 8.35211C7.84198 8.74999 6.89466 8.74999 5 8.74999Z" stroke="#000009" stroke-linecap="round"/>
<path d="M5.41668 6.66667C5.41668 6.89679 5.23013 7.08333 5.00001 7.08333C4.76989 7.08333 4.58334 6.89679 4.58334 6.66667C4.58334 6.43655 4.76989 6.25 5.00001 6.25C5.23013 6.25 5.41668 6.43655 5.41668 6.66667Z" fill="#000009"/>
</g>
<defs>
<clipPath id="clip0_203_19">
<rect width="10" height="10" fill="white"/>
</clipPath>
</defs>
</svg>
