<svg width="10" height="11" viewBox="0 0 10 11" fill="none" xmlns="http://www.w3.org/2000/svg">
<g clip-path="url(#clip0_89_3375)">
<path d="M4.99999 5.08337V7.58337M9.16666 5.50004C9.16666 7.80123 7.30118 9.66671 5 9.66671C2.69881 9.66671 0.833328 7.80123 0.833328 5.50004C0.833328 3.19885 2.69881 1.33337 5 1.33337C7.30118 1.33337 9.16666 3.19885 9.16666 5.50004Z" stroke="#000009" stroke-linecap="round"/>
<path d="M5.41666 3.83341C5.41666 4.06353 5.23011 4.25008 4.99999 4.25008C4.76988 4.25008 4.58333 4.06353 4.58333 3.83341C4.58333 3.6033 4.76988 3.41675 4.99999 3.41675C5.23011 3.41675 5.41666 3.6033 5.41666 3.83341Z" fill="#000009"/>
</g>
<defs>
<clipPath id="clip0_89_3375">
<rect width="10" height="10" fill="white" transform="translate(0 0.5)"/>
</clipPath>
</defs>
</svg>
