<svg width="73" height="15" viewBox="0 0 73 15" fill="none" xmlns="http://www.w3.org/2000/svg">
<path d="M70.7222 12.8736V1.17802H73V12.8736H70.7222Z" fill="#F9F9FF"/>
<path d="M57.1286 12.8736L61.1228 1.17802H64.8442L68.9507 12.8736H66.6087L63.1279 2.73209L63.9459 3.08456H61.9408L62.775 2.73209L59.4064 12.8736H57.1286ZM59.9197 9.76547L60.6415 7.8429H65.3896L66.0954 9.76547H59.9197Z" fill="#F9F9FF"/>
<path d="M47.6118 12.9466V10.8318H50.034C50.6435 10.8318 51.1836 10.741 51.6541 10.5594C52.1353 10.3672 52.5417 10.1001 52.8732 9.75835C53.2047 9.41656 53.456 9.01602 53.6271 8.55674C53.8089 8.08678 53.8998 7.56876 53.8998 7.00267C53.8998 6.41522 53.8089 5.89186 53.6271 5.43258C53.456 4.96262 53.2047 4.56208 52.8732 4.23097C52.5417 3.89987 52.1353 3.64886 51.6541 3.47797C51.1836 3.30708 50.6435 3.22163 50.034 3.22163H47.6118V1.10681H49.8896C50.9483 1.10681 51.8733 1.26168 52.6647 1.57143C53.456 1.88117 54.1137 2.30841 54.6377 2.85314C55.1617 3.38718 55.552 4.00134 55.8087 4.69559C56.076 5.37917 56.2097 6.08945 56.2097 6.82644V7.17891C56.2097 7.88384 56.076 8.5781 55.8087 9.26168C55.552 9.94526 55.1617 10.5648 54.6377 11.1202C54.1137 11.6756 53.456 12.1188 52.6647 12.4499C51.8733 12.781 50.9483 12.9466 49.8896 12.9466H47.6118ZM45.6548 12.9466V1.10681H47.9326V12.9466H45.6548Z" fill="#F9F9FF"/>
<path d="M37.9669 13C36.8761 13 35.9564 12.7917 35.2078 12.3752C34.4593 11.9586 33.8871 11.3765 33.4915 10.6288C33.1065 9.87049 32.914 8.98398 32.914 7.96929V1H35.1918V8.09746C35.1918 8.65287 35.2987 9.14419 35.5126 9.57143C35.7265 9.98798 36.0366 10.3138 36.443 10.5487C36.8601 10.773 37.368 10.8852 37.9669 10.8852C38.555 10.8852 39.0523 10.773 39.4587 10.5487C39.8757 10.3138 40.1859 9.98798 40.389 9.57143C40.6029 9.15487 40.7099 8.66355 40.7099 8.09746V1H42.9877V7.96929C42.9877 8.98398 42.7952 9.87049 42.4102 10.6288C42.0359 11.3765 41.4745 11.9586 40.7259 12.3752C39.9773 12.7917 39.0576 13 37.9669 13Z" fill="#F9F9FF"/>
<path d="M20 12.8736L23.9942 1.17802H27.7156L31.8221 12.8736H29.4801L25.9993 2.73209L26.8174 3.08456H24.8123L25.6464 2.73209L22.2778 12.8736H20ZM22.7911 9.76547L23.5129 7.8429H28.261L28.9668 9.76547H22.7911Z" fill="#F9F9FF"/>
<path d="M5.92556 8.9773C4.61597 10.8766 3.2429 12.4977 2.50111 13.291C2.80954 13.6197 3.83618 14.4216 5.47527 15C5.90352 13.2356 6.50165 11.3585 7.26967 9.47312C7.38517 9.18958 7.68782 8.9844 7.99537 8.99065C8.30585 8.99697 8.53081 9.18734 8.65389 9.47089C9.11849 10.5412 9.91005 12.6149 10.4983 15C11.8201 14.5793 12.9878 13.6854 13.4064 13.291C12.6657 12.4989 11.3223 10.8815 10.0339 8.98595C9.1122 7.62979 6.85639 7.62731 5.92556 8.9773Z" fill="#F9F9FF"/>
<path d="M10.382 8.59498C12.6956 8.69166 14.8057 8.98946 15.8755 9.19403C15.992 8.75968 16.1311 7.46881 15.7547 5.78013C14.0236 6.35494 12.1062 6.84626 10.0917 7.1988C9.78873 7.25181 9.45331 7.10549 9.29552 6.84288C9.13622 6.57777 9.17917 6.28713 9.35559 6.03297C10.0215 5.07357 11.3694 3.30629 13.0905 1.5453C12.0308 0.653996 10.6495 0.143724 10.0913 1.40791e-06C9.80883 1.04462 9.14274 3.03509 8.21024 5.12671C7.5431 6.62311 8.73748 8.52626 10.382 8.59498Z" fill="#F9F9FF"/>
<path d="M5.61803 8.59498C3.30439 8.69166 1.19427 8.98946 0.124516 9.19403C0.00796396 8.75968 -0.131058 7.46881 0.245271 5.78012C1.97645 6.35493 3.89375 6.84626 5.90831 7.19879C6.21127 7.25181 6.54669 7.10549 6.70449 6.84288C6.86379 6.57777 6.82083 6.28713 6.64441 6.03297C5.97848 5.07357 4.6306 3.30629 2.90952 1.5453C3.96923 0.653993 5.35055 0.143722 5.90875 0C6.19117 1.04461 6.85726 3.03509 7.78976 5.12671C8.4569 6.62311 7.26252 8.52626 5.61803 8.59498Z" fill="#F9F9FF"/>
</svg>
