<svg width="10" height="10" viewBox="0 0 10 10" fill="none" xmlns="http://www.w3.org/2000/svg">
<g clip-path="url(#clip0_87_2974)">
<path d="M5.25 3.33333C5.25 3.19526 5.13807 3.08333 5 3.08333C4.86193 3.08333 4.75 3.19526 4.75 3.33333H5.25ZM6.84423 5.50931C6.94142 5.41125 6.94072 5.25296 6.84265 5.15577C6.74459 5.05857 6.5863 5.05928 6.4891 5.15734L6.84423 5.50931ZM6.08423 5.92099L6.26179 6.09697L6.08423 5.92099ZM3.91577 5.92099L3.73821 6.09697L3.91577 5.92099ZM3.5109 5.15734C3.4137 5.05928 3.25541 5.05857 3.15735 5.15577C3.05928 5.25296 3.05857 5.41125 3.15577 5.50932L3.5109 5.15734ZM5.10444 6.66003L5.13605 6.90803H5.13605L5.10444 6.66003ZM4.89556 6.66003L4.86395 6.90803H4.86395L4.89556 6.66003ZM8.91667 5C8.91667 7.16311 7.16312 8.91666 5 8.91666V9.41666C7.43926 9.41666 9.41667 7.43925 9.41667 5H8.91667ZM5 8.91666C2.83688 8.91666 1.08333 7.16311 1.08333 5H0.583333C0.583333 7.43925 2.56074 9.41666 5 9.41666V8.91666ZM1.08333 5C1.08333 2.83688 2.83688 1.08333 5 1.08333V0.583328C2.56074 0.583328 0.583333 2.56074 0.583333 5H1.08333ZM5 1.08333C7.16312 1.08333 8.91667 2.83688 8.91667 5H9.41667C9.41667 2.56074 7.43926 0.583328 5 0.583328V1.08333ZM4.75 3.33333V6.33333H5.25V3.33333H4.75ZM6.4891 5.15734L5.90667 5.745L6.26179 6.09697L6.84423 5.50931L6.4891 5.15734ZM4.09333 5.745L3.5109 5.15734L3.15577 5.50932L3.73821 6.09697L4.09333 5.745ZM5.90667 5.745C5.67029 5.9835 5.50761 6.1471 5.36976 6.2578C5.23587 6.36533 5.14986 6.40222 5.07283 6.41204L5.13605 6.90803C5.34209 6.88176 5.51374 6.78345 5.68285 6.64764C5.84801 6.515 6.03369 6.32712 6.26179 6.09697L5.90667 5.745ZM3.73821 6.09697C3.96631 6.32712 4.15199 6.515 4.31715 6.64764C4.48626 6.78345 4.65791 6.88176 4.86395 6.90803L4.92717 6.41204C4.85014 6.40222 4.76413 6.36533 4.63023 6.2578C4.49239 6.1471 4.32971 5.9835 4.09333 5.745L3.73821 6.09697ZM5.07283 6.41204C5.04865 6.41512 5.02432 6.41666 5 6.41666V6.91666C5.04544 6.91666 5.09088 6.91378 5.13605 6.90803L5.07283 6.41204ZM5 6.41666C4.97568 6.41666 4.95135 6.41512 4.92716 6.41204L4.86395 6.90803C4.90911 6.91378 4.95456 6.91666 5 6.91666V6.41666ZM4.75 6.33333V6.66666H5.25V6.33333H4.75Z" fill="#000009"/>
</g>
<defs>
<clipPath id="clip0_87_2974">
<rect width="10" height="10" fill="white"/>
</clipPath>
</defs>
</svg>
