<svg width="10" height="11" viewBox="0 0 10 11" fill="none" xmlns="http://www.w3.org/2000/svg">
<g clip-path="url(#clip0_89_3188)">
<path d="M5.5 3.83331C5.5 3.55717 5.27614 3.33331 5 3.33331C4.72385 3.33331 4.5 3.55717 4.5 3.83331H5.5ZM7.02179 6.18529C7.21618 5.98915 7.21477 5.67257 7.01863 5.47819C6.8225 5.2838 6.50592 5.28521 6.31153 5.48134L7.02179 6.18529ZM6.08423 6.42097L6.43935 6.77294L6.08423 6.42097ZM3.91576 6.42097L3.56064 6.77294L3.91576 6.42097ZM3.68846 5.48134C3.49407 5.28521 3.17749 5.2838 2.98136 5.47819C2.78522 5.67257 2.78381 5.98915 2.9782 6.18529L3.68846 5.48134ZM5.10444 7.16002L5.16766 7.656L5.16766 7.656L5.10444 7.16002ZM4.89555 7.16002L4.83233 7.656L4.83233 7.656L4.89555 7.16002ZM8.66666 5.49998C8.66666 7.52502 7.02504 9.16665 5 9.16665V10.1666C7.57732 10.1666 9.66666 8.07731 9.66666 5.49998H8.66666ZM5 9.16665C2.97495 9.16665 1.33333 7.52502 1.33333 5.49998H0.333328C0.333328 8.07731 2.42267 10.1666 5 10.1666V9.16665ZM1.33333 5.49998C1.33333 3.47494 2.97495 1.83331 5 1.83331V0.833313C2.42267 0.833313 0.333328 2.92265 0.333328 5.49998H1.33333ZM5 1.83331C7.02504 1.83331 8.66666 3.47494 8.66666 5.49998H9.66666C9.66666 2.92265 7.57732 0.833313 5 0.833313V1.83331ZM4.5 3.83331V6.83331H5.5V3.83331H4.5ZM6.31153 5.48134L5.7291 6.069L6.43935 6.77294L7.02179 6.18529L6.31153 5.48134ZM4.27089 6.069L3.68846 5.48134L2.9782 6.18529L3.56064 6.77294L4.27089 6.069ZM5.7291 6.069C5.48858 6.31167 5.3374 6.46313 5.21322 6.56286C5.09693 6.65625 5.05374 6.66243 5.04122 6.66403L5.16766 7.656C5.4382 7.62152 5.65267 7.4925 5.83938 7.34255C6.01821 7.19894 6.21539 6.99891 6.43935 6.77294L5.7291 6.069ZM3.56064 6.77294C3.7846 6.99891 3.98178 7.19894 4.16061 7.34255C4.34732 7.4925 4.56179 7.62152 4.83233 7.656L4.95877 6.66403C4.94625 6.66243 4.90306 6.65625 4.78677 6.56286C4.66259 6.46313 4.51141 6.31167 4.27089 6.069L3.56064 6.77294ZM5.04122 6.66403C5.02753 6.66577 5.01376 6.66665 5 6.66665V7.66665C5.056 7.66665 5.112 7.6631 5.16766 7.656L5.04122 6.66403ZM5 6.66665C4.98623 6.66665 4.97246 6.66577 4.95877 6.66403L4.83233 7.656C4.88799 7.6631 4.94399 7.66665 5 7.66665V6.66665ZM4.5 6.83331V7.16665H5.5V6.83331H4.5Z" fill="#000009"/>
</g>
<defs>
<clipPath id="clip0_89_3188">
<rect width="10" height="10" fill="white" transform="translate(0 0.5)"/>
</clipPath>
</defs>
</svg>
