<svg width="10" height="10" viewBox="0 0 10 10" fill="none" xmlns="http://www.w3.org/2000/svg">
<path d="M2.91667 6.19048L3.52514 4.95004C3.83247 4.3235 4.73577 4.3541 5 5C5.26423 5.6459 6.16753 5.6765 6.47486 5.04996L7.08333 3.80952M5 8.75C3.43761 8.75 2.65642 8.75 2.10878 8.35212C1.93192 8.22362 1.77638 8.06808 1.64788 7.89122C1.25 7.34358 1.25 6.56239 1.25 5C1.25 3.43761 1.25 2.65642 1.64788 2.10878C1.77638 1.93192 1.93192 1.77638 2.10878 1.64788C2.65642 1.25 3.43761 1.25 5 1.25C6.56239 1.25 7.34358 1.25 7.89122 1.64788C8.06808 1.77638 8.22362 1.93192 8.35212 2.10878C8.75 2.65642 8.75 3.43761 8.75 5C8.75 6.56239 8.75 7.34358 8.35212 7.89122C8.22362 8.06808 8.06808 8.22362 7.89122 8.35212C7.34358 8.75 6.56239 8.75 5 8.75Z" stroke="#000009" stroke-width="0.5" stroke-linecap="round"/>
</svg>
