<svg width="10" height="9" viewBox="0 0 10 9" fill="none" xmlns="http://www.w3.org/2000/svg">
<path d="M2.91667 5.69048L3.52514 4.45004C3.83247 3.8235 4.73577 3.8541 5 4.5C5.26423 5.1459 6.16753 5.1765 6.47486 4.54996L7.08333 3.30952M5 8.25C3.43761 8.25 2.65642 8.25 2.10878 7.85212C1.93192 7.72362 1.77638 7.56808 1.64788 7.39122C1.25 6.84358 1.25 6.06239 1.25 4.5C1.25 2.93761 1.25 2.15642 1.64788 1.60878C1.77638 1.43192 1.93192 1.27638 2.10878 1.14788C2.65642 0.75 3.43761 0.75 5 0.75C6.56239 0.75 7.34358 0.75 7.89122 1.14788C8.06808 1.27638 8.22362 1.43192 8.35212 1.60878C8.75 2.15642 8.75 2.93761 8.75 4.5C8.75 6.06239 8.75 6.84358 8.35212 7.39122C8.22362 7.56808 8.06808 7.72362 7.89122 7.85212C7.34358 8.25 6.56239 8.25 5 8.25Z" stroke="#000009" stroke-linecap="round"/>
</svg>
